# xmcd CD database file
#
# Track frame offsets:
#	150
#	12299
#	24917
#	40702
#	58883
#	72696
#	91863
#	106569
#	123791
#	141243
#	155192
#	173158
#
# Disc length: 2480 seconds
#
# Revision: 0
# Processed by: cddbd v1.5.1PL0 Copyright (c) Steve Scherf et al.
# Submitted via: CDex 1.50
#
DISCID=9909ae0c
DTITLE=George Royter - A Tale To Tell
DYEAR=2005
DGENRE=Country
TTITLE0=George Royter =The Lawrence Frost
TTITLE1=George Royter =Rusho
TTITLE2=George Royter =Ship In The Harbour
TTITLE3=George Royter =Young George Davidson
TTITLE4=George Royter =A Tale To Tell
TTITLE5=George Royter =No Sense Going On
TTITLE6=George Royter =The Spirit Of Coolangatta
TTITLE7=George Royter =The Land Of Alexander Berry
TTITLE8=George Royter =Dust On The Violin
TTITLE9=George Royter =The Grader Man
TTITLE10=George Royter =(Roll On ) Old River
TTITLE11=George Royter =Listen To The Clock
EXTD=YEAR: 2005
EXTT0=
EXTT1=
EXTT2=
EXTT3=
EXTT4=
EXTT5=
EXTT6=
EXTT7=
EXTT8=
EXTT9=
EXTT10=
EXTT11=
PLAYORDER=
